{"accessors":[{"bufferView":2,"componentType":5126,"count":29793,"max":[0.62945479154586792,0.72787576913833618,0.39544999599456787],"min":[-0.62945479154586792,-0.73259001970291138,-0.05289711058139801],"type":"VEC3"},{"bufferView":2,"byteOffset":357516,"componentType":5126,"count":29793,"max":[0.99987751245498657,0.99975097179412842,1],"min":[-0.99987751245498657,-0.99997329711914062,-1],"type":"VEC3"},{"bufferView":1,"componentType":5126,"count":29793,"max":[0.99325001239776611,0.98321998119354248],"min":[0.017550000920891762,0.013609999790787697],"type":"VEC2"},{"bufferView":3,"componentType":5126,"count":29793,"max":[0.99994748830795288,1,0.99997001886367798,1],"min":[-0.99994748830795288,-1,-0.9984748363494873,-1],"type":"VEC4"},{"bufferView":0,"componentType":5125,"count":171648,"max":[29792],"min":[0],"type":"SCALAR"}],"asset":{"generator":"Sketchfab (OSG glTF plugin)","version":"2.0"},"bufferViews":[{"buffer":0,"byteLength":686592,"byteOffset":0,"name":"ScalarBufferView","target":34962},{"buffer":0,"byteLength":238344,"byteOffset":686592,"byteStride":8,"name":"Vec2BufferView","target":34962},{"buffer":0,"byteLength":715032,"byteOffset":924936,"byteStride":12,"name":"Vec3BufferView","target":34962},{"buffer":0,"byteLength":476688,"byteOffset":1639968,"byteStride":16,"name":"Vec4BufferView","target":34962}],"buffers":[{"byteLength":2116656,"uri":"scene.bin"}],"images":[{"uri":"textures\/Caretta-caretta-SF_baseColor.png"},{"uri":"textures\/Caretta-caretta-SF_normal.png"}],"materials":[{"doubleSided":true,"name":"Caretta-caretta-SF","normalTexture":{"index":1,"scale":0.10000000000000001,"texCoord":0},"occlusionFactor":1,"pbrMetallicRoughness":{"baseColorFactor":[1,1,1,1],"baseColorTexture":{"index":0,"texCoord":0},"metallicFactor":0.39171912240000001,"roughnessFactor":0.60828087759999994}}],"meshes":[{"name":"GeodeCaretta-caretta","primitives":[{"attributes":{"NORMAL":1,"POSITION":0,"TANGENT":3,"TEXCOORD_0":2},"indices":4,"material":0,"mode":4}]}],"nodes":[{"children":[1],"name":"RootNode (gltf orientation matrix)","rotation":[-0.70710678118654746,-0,-0,0.70710678118654757]},{"children":[2],"name":"RootNode (model correction matrix)"},{"children":[3,5],"name":"Root"},{"children":[4],"matrix":[0.70711000000000002,-0.70711000000000002,0,0,0.5,0.5,-0.70711000000000002,0,0.5,0.5,0.70711000000000002,0,0,0,0,1],"name":"Sol"},{"name":"Sol"},{"children":[6],"name":"Arm-Caretta-caretta"},{"children":[7],"name":"Caretta-caretta"},{"mesh":0,"name":"GeodeCaretta-caretta"}],"samplers":[{"magFilter":9729,"minFilter":9987,"wrapS":10497,"wrapT":10497}],"scene":0,"scenes":[{"name":"OSG_Scene","nodes":[0]}],"textures":[{"sampler":0,"source":0},{"sampler":0,"source":1}]}
