{"accessors":[{"bufferView":2,"componentType":5126,"count":3750,"max":[246.8529052734375,111.43498229980469,466.63983154296875],"min":[-481.59414672851562,-76.314750671386719,-466.63983154296875],"type":"VEC3"},{"bufferView":2,"byteOffset":45000,"componentType":5126,"count":3750,"max":[1,1,1],"min":[-1,-1,-1],"type":"VEC3"},{"bufferView":1,"componentType":5126,"count":3750,"max":[0.97829306125640869,0.99799990653991699],"min":[0.0020000000949949026,0.0020000000949949026],"type":"VEC2"},{"bufferView":3,"componentType":5126,"count":3750,"max":[0.99999982118606567,1,1,1],"min":[-1,-1,-1,-1],"type":"VEC4"},{"bufferView":0,"componentType":5125,"count":11025,"max":[3749],"min":[0],"type":"SCALAR"}],"asset":{"generator":"Sketchfab (OSG glTF plugin)","version":"2.0"},"bufferViews":[{"buffer":0,"byteLength":44100,"byteOffset":0,"name":"ScalarBufferView","target":34962},{"buffer":0,"byteLength":30000,"byteOffset":44100,"byteStride":8,"name":"Vec2BufferView","target":34962},{"buffer":0,"byteLength":90000,"byteOffset":74100,"byteStride":12,"name":"Vec3BufferView","target":34962},{"buffer":0,"byteLength":60000,"byteOffset":164100,"byteStride":16,"name":"Vec4BufferView","target":34962}],"buffers":[{"byteLength":224100,"uri":"scene.bin"}],"images":[{"uri":"textures\/Material #51_baseColor.png"},{"uri":"textures\/Material #51_metallicRoughness.png"},{"uri":"textures\/Material #51_normal.png"}],"materials":[{"alphaCutoff":0.50171493899999997,"alphaMode":"MASK","doubleSided":true,"emissiveFactor":[0,0,0],"name":"Material #51","normalTexture":{"index":2,"scale":1,"texCoord":0},"occlusionTexture":{"index":1,"strength":1,"texCoord":0},"pbrMetallicRoughness":{"baseColorFactor":[1,1,1,1],"baseColorTexture":{"index":0,"texCoord":0},"metallicFactor":1,"metallicRoughnessTexture":{"index":1,"texCoord":0},"roughnessFactor":1}}],"meshes":[{"name":"LOWPOLY001","primitives":[{"attributes":{"NORMAL":1,"POSITION":0,"TANGENT":3,"TEXCOORD_0":2},"indices":4,"material":0,"mode":4}]}],"nodes":[{"children":[1],"name":"RootNode (gltf orientation matrix)","rotation":[-0.70710678118654746,-0,-0,0.70710678118654757]},{"children":[2],"name":"RootNode (model correction matrix)"},{"children":[3],"matrix":[1,0,0,0,0,0,1,0,0,-1,0,0,0,0,0,1],"name":"bomber.FBX"},{"children":[4],"name":"RootNode"},{"children":[5],"matrix":[4.3711388175715626e-08,-6.6174449004242214e-24,-0.999999999999999,0,4.3711388225505553e-08,0.999999999999999,1.9106854552385377e-15,0,0.99999999999999811,-4.3711388225505599e-08,4.3711388175715626e-08,0,1.0235685188320076e-08,24.804807662963867,0.23416627943515778,1],"name":"LOWPOLY001"},{"mesh":0,"name":"LOWPOLY001"}],"samplers":[{"magFilter":9729,"minFilter":9987,"wrapS":10497,"wrapT":10497}],"scene":0,"scenes":[{"name":"OSG_Scene","nodes":[0]}],"textures":[{"sampler":0,"source":0},{"sampler":0,"source":1},{"sampler":0,"source":2}]}
