{"accessors":[{"bufferView":1,"componentType":5126,"count":24,"max":[1,1,1],"min":[-1,-1,-1],"type":"VEC3"},{"bufferView":1,"byteOffset":288,"componentType":5126,"count":24,"max":[1,1,1],"min":[-1,-1,-1],"type":"VEC3"},{"bufferView":0,"componentType":5125,"count":36,"max":[23],"min":[0],"type":"SCALAR"},{"bufferView":1,"byteOffset":576,"componentType":5126,"count":24,"max":[1,1,1],"min":[-1,-1,-1],"type":"VEC3"},{"bufferView":1,"byteOffset":864,"componentType":5126,"count":24,"max":[1,1,1],"min":[-1,-1,-1],"type":"VEC3"},{"bufferView":2,"componentType":5126,"count":24,"max":[0,1,0,1],"min":[-1,0,-1,1],"type":"VEC4"},{"bufferView":0,"byteOffset":144,"componentType":5125,"count":36,"max":[23],"min":[0],"type":"SCALAR"}],"asset":{"generator":"Sketchfab (OSG glTF plugin)","version":"2.0"},"bufferViews":[{"buffer":0,"byteLength":288,"byteOffset":0,"name":"ScalarBufferView","target":34962},{"buffer":0,"byteLength":1152,"byteOffset":288,"byteStride":12,"name":"Vec3BufferView","target":34962},{"buffer":0,"byteLength":384,"byteOffset":1440,"byteStride":16,"name":"Vec4BufferView","target":34962}],"buffers":[{"byteLength":1824,"uri":"scene.bin"}],"materials":[{"doubleSided":true,"emissiveFactor":[0,0,0],"name":"Material.003","pbrMetallicRoughness":{"roughnessFactor":0}},{"doubleSided":true,"emissiveFactor":[0,0,0],"name":"Material","pbrMetallicRoughness":{"baseColorFactor":[0,0.017839418700000002,0.80000007149999997,1],"metallicFactor":0,"roughnessFactor":0.59999999999999998}}],"meshes":[{"name":"GeodeCube","primitives":[{"attributes":{"NORMAL":1,"POSITION":0},"indices":2,"material":1,"mode":4}]},{"name":"GeodeCube.001","primitives":[{"attributes":{"NORMAL":4,"POSITION":3,"TANGENT":5},"indices":6,"material":0,"mode":4}]}],"nodes":[{"children":[1],"name":"RootNode (gltf orientation matrix)","rotation":[-0.70710678118654746,-0,-0,0.70710678118654757]},{"children":[2],"name":"RootNode (model correction matrix)"},{"children":[3,5,7],"name":"Root"},{"children":[4],"matrix":[-0.29086000000000006,0.95517000000000007,-0.05519000000000001,0,-0.77110000000000001,-0.19988000000000003,0.60452000000000006,0,0.56639000000000006,0.21839000000000003,0.7946700000000001,0,4.0762500000000008,1.00545,5.9038600000000008,1],"name":"Lamp"},{"name":"Lamp"},{"children":[6],"name":"Cube"},{"mesh":0,"name":"GeodeCube"},{"children":[8],"matrix":[1,0,0,0,0,1,0,0,0,0,1,0,-1.09049,1.61209,0.3334100000000001,1],"name":"Cube.001"},{"mesh":1,"name":"GeodeCube.001"}],"scene":0,"scenes":[{"name":"OSG_Scene","nodes":[0]}]}
